#!OML:ASF E:/inclinewalkrobotboard/Project1/Captureday1/Session1/subject1.ASF
:FULLY-SPECIFIED
:DEGREES
201
root 0 0 0 16.130479372965613 5.151834196080032 2.4803089908415656
lowerback 22.041673167557963 0.30807912544466565 0.7861957052763912
upperback -0.7767450120749704 0.20982433632642283 3.431922565863533
thorax -12.824183643260781 0.17702608429008743 2.900414225448212
lowerneck -13.818574675304134 1.3066947200643118 9.690126591145198
upperneck 25.43798891399793 -0.8371701658043282 -1.8993014218195334
head 10.860790753386333 0.3744442765037727 -2.2637006655904077
rclavicle 6.069927838764038E-15 6.0641819839396466E-15
rhumerus 33.27961402380229 20.494291613997806 -76.21970945145829
rradius 91.26382419121556
rwrist -35.93401416244587
rhand -25.561347512635415 -23.18628501781661
rfingers 7.125020000000001
rthumb 0.9858467143277956 -53.678971328360234
lclavicle -3.121414522425263E-15 4.8767254870277195E-15
lhumerus 24.59065023364017 -38.74395776322814 76.03282740771377
lradius 143.09619841828294
lwrist 9.924964385129245
lhand -33.446099175258865 8.71653364012153
lfingers 7.125019999999933
lthumb -6.619019739842592 39.18668395030333
rfemur -49.19472694425876 2.9854389606915657 29.90751590225558
rtibia 46.84802844618132
rfoot -25.77266519640205 -2.8564997347779784
rtoes -37.89137637961849
lfemur -55.4078504043285 -6.100822043649449 -18.48983860461173
ltibia 54.00432061318412
lfoot -28.489972313342264 -9.718892080238492
ltoes -41.06649593354336
202
root 0 0 0 15.54546433515194 12.802589354064658 2.4597578523220824
lowerback 21.37906979464946 1.791493669087185 1.8501946351581502
upperback -1.1929706242579998 2.229659808355416 3.1421051551544474
thorax -12.744202170653628 1.136231496982357 1.9451953144144865
lowerneck -15.412601580772067 -2.2084827574702217 5.942328799805953
upperneck 27.475364042972316 -6.254997375806289 1.9761054887053122
head 11.55410299018822 -2.011027217015547 -0.938009319547173
rclavicle 4.8729238588631745E-15 6.7170302424810695E-15
rhumerus 35.38536817488362 16.185548744358414 -74.87668049734232
rradius 70.5556042831669
rwrist -28.786913550022277
rhand -26.1497675855669 -23.30989929610942
rfingers 7.125020000000019
rthumb 0.4240281321863133 -53.850148790271234
lclavicle -6.792263153170702E-15 3.67209842616137E-15
lhumerus 24.734797483596516 -38.1365621226257 75.38576331677915
lradius 142.64046109497264
lwrist 9.467053857462542
lhand -33.533579411738685 8.56963335601511
lfingers 7.125019999999935
lthumb -6.70210504307394 39.044646097351
rfemur -51.95196604344153 4.756951962825466 29.326149876053744
rtibia 46.7077138705831
rfoot -28.080587391667493 -3.124214339662606
rtoes -37.07490537070535
lfemur -54.56078696202285 -6.6003074947616955 -18.62178796632238
ltibia 53.00919617241276
lfoot -28.779546290653474 -8.876973780661674
ltoes -41.77415688697102
203
root 0 0 0 15.376830673505967 17.468539029479125 2.096444083901616
lowerback 20.735864022009164 2.1822331121461485 2.3790189868832927
upperback -1.4379503032210708 2.79339087834693 3.313862193475611
thorax -12.58415353748143 1.4125801645109306 1.9026871985461635
lowerneck -15.403559402670396 -3.6662466141407557 4.434435521077802
upperneck 27.58577642187452 -8.250232465968912 3.0523917939292007
head 11.611835022526874 -2.9510043998890128 -0.5449216279369677
rclavicle 4.8463692529125005E-15 7.191048897544853E-15
rhumerus 35.7025265940814 15.026259039153096 -74.76032853780423
rradius 63.251343694171744
rwrist -25.576401143201473
rhand -26.28198047178097 -22.992023159441267
rfingers 7.125020000000027
rthumb 0.29827951589269475 -53.5425410415673
lclavicle -6.712450905360239E-15 3.6200028926642956E-15
lhumerus 24.97304255348091 -37.58202348425839 74.91071028607288
lradius 142.4817351349008
lwrist 9.274141117841946
lhand -33.586379926227636 8.504934411633926
lfingers 7.125019999999935
lthumb -6.751524120293336 38.98342254585771
rfemur -52.25118754197398 4.7721002426609225 29.37486956750953
rtibia 46.88015433352639
rfoot -27.310523076921775 -3.3030012532394704
rtoes -36.75990660211024
lfemur -53.55279069689422 -7.485639412503282 -18.259857510361265
ltibia 50.68426844046276
lfoot -30.16046627622833 -6.84472194112748
ltoes -42.9161424681273
204
root 0 0 0 15.20047363162053 17.235564419871004 2.0297742782740316
lowerback 20.641019615278413 2.0291336562970086 2.258877917048075
upperback -1.5397916782101126 2.579620850911433 3.386524872580388
thorax -12.613984039702764 1.3236965530606493 2.103760935736076
lowerneck -15.145099041693197 -3.6541746060944233 4.546133852172923
upperneck 27.931463151683218 -8.271159323838532 3.105968393459321
head 11.71109292675624 -2.934149399108936 -0.5457912465215056
rclavicle 4.057616569937106E-15 7.284658119386355E-15
rhumerus 34.747798079983234 15.737442430434957 -75.32241941775894
rradius 63.218221349564615
rwrist -25.04929202749008
rhand -26.21934891500579 -22.576327829814975
rfingers 7.125020000000027
rthumb 0.3605144948279655 -53.123854224483566
lclavicle -6.870510125554453E-15 3.68261228159558E-15
lhumerus 25.14447162337867 -36.97794522351369 74.44686835913265
lradius 142.31881733901605
lwrist 9.105949449070433
lhand -33.647414186643886 8.456467957481768
lfingers 7.125019999999936
lthumb -6.809021528308103 38.9398893583453
rfemur -52.19701288919475 5.068996171815225 29.716095667315653
rtibia 46.547082220726516
rfoot -27.059411359226868 -3.427170984689484
rtoes -37.14030888795733
lfemur -53.16279372767035 -8.32768488192403 -17.40791018273481
ltibia 48.1248935419115
lfoot -31.86963350199457 -4.837286213664491
ltoes -43.69834022735709
